<?xml version="1.0" encoding="utf-8"?>
<!-- Generator: Adobe Illustrator 27.0.0, SVG Export Plug-In . SVG Version: 6.00 Build 0)  -->
<svg version="1.1" id="Layer_1" xmlns="http://www.w3.org/2000/svg" xmlns:xlink="http://www.w3.org/1999/xlink" x="0px" y="0px"
	 viewBox="0 0 64 64" style="enable-background:new 0 0 64 64;" xml:space="preserve">
<style type="text/css">
	.st0{fill:url(#SVGID_1_);}
</style>
<linearGradient id="SVGID_1_" gradientUnits="userSpaceOnUse" x1="-1.1782" y1="64.8701" x2="64.4305" y2="-0.3472" gradientTransform="matrix(1 0 0 -1 0 63.8898)">
	<stop  offset="0" style="stop-color:#B3E3FF"/>
	<stop  offset="0.1354" style="stop-color:#B4DAFF"/>
	<stop  offset="0.3558" style="stop-color:#B7C2FF"/>
	<stop  offset="0.6337" style="stop-color:#BB9AFF"/>
	<stop  offset="0.9553" style="stop-color:#C164FF"/>
	<stop  offset="1" style="stop-color:#C25CFF"/>
</linearGradient>
<path class="st0" d="M53.5,0h-43C4.7,0,0,4.7,0,10.5v43C0,59.3,4.7,64,10.5,64h43C59.3,64,64,59.3,64,53.5v-43C64,4.7,59.3,0,53.5,0
	z M59.6,18.9L59.6,18.9l-0.1,27.5c0,7.2-5.9,13.1-13.1,13.1H17.5c-7.2,0-13.1-5.9-13.1-13.1V17.5c0-7.2,5.9-13.1,13.1-13.1
	c1.9,0,3.4,1.5,3.4,3.4s-1.5,3.4-3.4,3.4c-3.4,0-6.3,2.8-6.3,6.3v28.9c0,3.4,2.8,6.3,6.3,6.3h29c3.4,0,6.3-2.8,6.3-6.3V17.5
	c0-3.4-2.8-6.3-6.3-6.3H32.2c-1.9,0-3.4-1.5-3.4-3.4s1.5-3.4,3.4-3.4h14.4c7.2,0,13.1,5.9,13.1,13.1L59.6,18.9L59.6,18.9z M24,16.6
	h12c6.3,0,11.5,5.1,11.5,11.5c0,5.8-4.4,10.7-10,11.4v4.7c0,1.9-1.5,3.4-3.4,3.4H24c-1.9,0-3.4-1.5-3.4-3.4V20
	C20.5,18.1,22.1,16.6,24,16.6z M30.6,40.7h-3.2V23.4H36c2.5,0,4.6,2.1,4.6,4.6s-2.1,4.6-4.6,4.6h-2c-1.9,0-3.4,1.5-3.4,3.4V40.7z"/>
</svg>
